<svg xmlns="http://www.w3.org/2000/svg" width="154" height="70" viewBox="0 0 154 70">
  <defs>
    <style>
      .cls-1 {
        fill: #cda46c;
      }

      .cls-2 {
        fill: #fff;
      }
    </style>
  </defs>
  <g id="logo1" transform="translate(-340 -103)">
    <rect id="矩形_450" data-name="矩形 450" class="cls-1" width="154" height="70" transform="translate(340 103)"/>
    <g id="组_48" data-name="组 48" transform="translate(2684.584 -364.307)">
      <g id="组_4758" data-name="组 4758" transform="translate(-2259.685 485.307)">
        <path id="路径_2130" data-name="路径 2130" class="cls-2" d="M-2253.053,489.963a36.587,36.587,0,0,1-4.83,1.4,3.706,3.706,0,0,0,3.115,1.591,15.6,15.6,0,0,0,2.873-.719,16.508,16.508,0,0,1,.487,5.021c-.8.146-1.586.351-2.383.5a32.438,32.438,0,0,0-3.367.589c.652.742,1.466,1.646,2.554,1.531a17.287,17.287,0,0,1,3.209-.313c0,1.836-.263,3.659-.181,5.5-2.716.568-5.479.879-8.236,1.189a10.792,10.792,0,0,0,1.658,1.7,2.534,2.534,0,0,0,2.234.241,87.105,87.105,0,0,1,15.861-1.509c.108-.818-.51-1.412-.955-2.012a1.734,1.734,0,0,0-1.419-.858,57.449,57.449,0,0,0-6.479.895c-.243-1.861.151-3.73.054-5.6a23.691,23.691,0,0,1,4.017-.66,4.66,4.66,0,0,0,2.012-.485c-.608-.764-1.161-2-2.307-1.921a15.556,15.556,0,0,0-3.593.762c-.127-1.632.436-3.185.58-4.788a6.963,6.963,0,0,1-2.558-.289,18.921,18.921,0,0,1,1.813-.986,40.211,40.211,0,0,1,5.626-2.923c-.444-.331-.917-.62-1.387-.916a17.8,17.8,0,0,1-1.869-1.6A14.091,14.091,0,0,1-2253.053,489.963Z" transform="translate(2274.676 -485.307)"/>
        <path id="路径_2131" data-name="路径 2131" class="cls-2" d="M-2262.588,490.377a20.5,20.5,0,0,1-4.981,1.141,4.1,4.1,0,0,0,1.734,1.892c.153.121.329.042.49-.018a36.767,36.767,0,0,1,4.624-1.659,26.566,26.566,0,0,1-1.979,5.183,7.419,7.419,0,0,1-2.209,2.621c-.048.863.24,1.715.183,2.587a8.559,8.559,0,0,1,4.487-1.411,18.2,18.2,0,0,1-2.038,5.448c-1.587-.54-3.078-1.335-4.693-1.8a1.778,1.778,0,0,0-.977-.033,8.87,8.87,0,0,0-.056,1.762c1.428.643,2.964,1.018,4.353,1.756a14.139,14.139,0,0,1-2.925,3.008,21.909,21.909,0,0,1-4.951,2.762,4.8,4.8,0,0,0,2.275,1.12,5.017,5.017,0,0,0,4.159-1.366,25.667,25.667,0,0,0,3.74-4.329c1.11.425,2.13,1.039,3.2,1.558,3.127,1.566,6.2,3.238,9.229,4.979a12.989,12.989,0,0,0,4.314,1.86,47.611,47.611,0,0,0,10.975-.176,2.323,2.323,0,0,0,2.059-1.044,14.592,14.592,0,0,0-2.651-.931c-2-.634-4.014-1.2-6.053-1.671-1.844-.458-3.727-.723-5.588-1.087a30.865,30.865,0,0,1-4.629-1.346c-1.776-.627-3.422-1.571-5.21-2.173-1.47-.681-2.93-1.387-4.432-2,.668-1.625,1.646-3.1,2.257-4.754a4.922,4.922,0,0,1,1.485-2.038c-.627-.275-1.28-.486-1.9-.776-.481-.221-.883-.581-1.371-.792a8.545,8.545,0,0,1-2.727.793c.628-1.054,1.387-2.025,2.1-3.026a34.494,34.494,0,0,1,4.574-5.235,11.961,11.961,0,0,1-4.8-2.106A6.636,6.636,0,0,1-2262.588,490.377Z" transform="translate(2271.527 -484.294)"/>
      </g>
      <g id="组_4759" data-name="组 4759" transform="translate(-2315.584 487.175)">
        <path id="路径_2132" data-name="路径 2132" class="cls-2" d="M-2285.557,503.765a16.234,16.234,0,0,1-5.811-3.195,16,16,0,0,1-4.207,1.529,38.613,38.613,0,0,1-6.075.823c-1.176-.268-2.371-.454-3.549-.716,1.821,3.489,1.986,7.528,2.088,11.381a13.876,13.876,0,0,0,2.68,1.617,6.3,6.3,0,0,0-.112-2.091c1.928-.193,3.866-.2,5.795-.382,2.428-.146,4.853-.332,7.284-.409a14.586,14.586,0,0,0-1.774-2.432C-2288.466,507.627-2287.5,505.284-2285.557,503.765Zm-6.208,3.99a21.343,21.343,0,0,1-.441,2.324,5.283,5.283,0,0,1-1.512.378,64.136,64.136,0,0,1-6.98.935c-.247-2.085-.424-4.178-.466-6.278,1.988-.354,3.958-.815,5.952-1.134a19.294,19.294,0,0,1,3.831-.411A20.249,20.249,0,0,1-2291.765,507.755Z" transform="translate(2318.375 -483.072)"/>
        <path id="路径_2133" data-name="路径 2133" class="cls-2" d="M-2288.236,486.779c-1.006.378-1.967.872-2.99,1.2a37.2,37.2,0,0,1-6.607,1.384c-1.276.213-2.583.112-3.851.392a10.166,10.166,0,0,0,2.146,2.536c1.277-.279,2.459-.863,3.742-1.117a17.869,17.869,0,0,1-1.978,5.678,22.032,22.032,0,0,1-2.794,3.875,19.673,19.673,0,0,1-3.85,3.112c-.071-2.578-.029-5.156,0-7.733a14.7,14.7,0,0,1,.938-5.094,11.55,11.55,0,0,1-3.946-1.863,14.072,14.072,0,0,1-3.091,1.237,7.137,7.137,0,0,1-2.492.136,11.7,11.7,0,0,0-2.554-.738c.142,1.021.332,2.033.446,3.056.132,1.033.065,2.077.157,3.114.136,1.363.084,2.732.1,4.1-.015,1.825.048,3.655-.128,5.475a30.393,30.393,0,0,1-.228,3.576c-.064.969-.375,1.913-.368,2.885a18.632,18.632,0,0,0,1.823,1.953c.253.277.808.693,1.052.186.231-.644-.034-1.38.185-2.036a12.122,12.122,0,0,1,2.363-.337,12.89,12.89,0,0,1,2.062-.123,2.777,2.777,0,0,1,.731.709,6.883,6.883,0,0,0,2.566,2.176,5.479,5.479,0,0,0,.369-2.821q-.006-3.774,0-7.551a5.843,5.843,0,0,0,2.5.647,4,4,0,0,0,2.847-1.548,33.554,33.554,0,0,0,4.729-7.251c.627-1.284,1.521-2.412,2.156-3.693a8.506,8.506,0,0,1-2.805-1.019c0-.048,0-.146-.007-.193,1.537-.449,3.115-.733,4.659-1.153a7.761,7.761,0,0,1,2.454-.39c.292.431.095.976.038,1.448-.5,2.338-.9,4.7-1.562,6.995-.127.37-.212.907-.705.925-1.127.07-2.152-.575-3.28-.553a6.241,6.241,0,0,0,1.638,2.317,10.163,10.163,0,0,0,4.066,3.087,13.772,13.772,0,0,0,1.189-3.352c1-3.756,1.593-7.671,3.324-11.188A13.019,13.019,0,0,1-2288.236,486.779Zm-19.323,23.365c-.306-.232-.563-.711-1.006-.605-1.358.189-2.668.613-4.02.836q-.074-4.275,0-8.559c1.546-.189,3.1-.3,4.644-.549a6.96,6.96,0,0,0-.89-2.025c-1.307.118-2.474.843-3.782.941,0-2.7-.023-5.395.014-8.092.277.151.571.421.9.231a12.777,12.777,0,0,1,4.147-.74,15.73,15.73,0,0,1,.2,2.141q-.009,6.593,0,13.187A12.072,12.072,0,0,1-2307.559,510.144Z" transform="translate(2315.584 -486.779)"/>
      </g>
      <g id="组_4760" data-name="组 4760" transform="translate(-2271.945 489.266)">
        <path id="路径_2134" data-name="路径 2134" class="cls-2" d="M-2278.189,490.965l-2.781-1.661v.537a1.964,1.964,0,0,0,.049.534.914.914,0,0,0,.288.428,1.206,1.206,0,0,0,.562.249v.081l-1.065-.114v-2.591l2.785,1.665v-.42a2.166,2.166,0,0,0-.015-.321.781.781,0,0,0-.112-.274.7.7,0,0,0-.223-.213,1.17,1.17,0,0,0-.351-.132v-.077l.863.077Z" transform="translate(2281.205 -488.427)"/>
        <path id="路径_2135" data-name="路径 2135" class="cls-2" d="M-2279.719,491.936h-.912a.95.95,0,0,0-.283.024.216.216,0,0,0-.1.094.362.362,0,0,0-.042.189v.094h-.08v-1.479h.08v.094a.374.374,0,0,0,.046.2.189.189,0,0,0,.1.084.935.935,0,0,0,.274.023h1.938a1.019,1.019,0,0,0,.283-.023.209.209,0,0,0,.1-.093.367.367,0,0,0,.042-.189v-.094h.081v1.479h-.081v-.094a.384.384,0,0,0-.046-.2.2.2,0,0,0-.1-.085.925.925,0,0,0-.273-.023h-.834v1h.834a1.017,1.017,0,0,0,.283-.023.212.212,0,0,0,.1-.094.371.371,0,0,0,.042-.189v-.093h.081v1.477h-.081v-.091a.37.37,0,0,0-.046-.2.205.205,0,0,0-.1-.086.927.927,0,0,0-.273-.023h-1.938a1.017,1.017,0,0,0-.283.023.216.216,0,0,0-.1.094.37.37,0,0,0-.042.19v.091h-.08v-1.477h.08v.093a.374.374,0,0,0,.046.2.2.2,0,0,0,.1.085.932.932,0,0,0,.274.023h.912Z" transform="translate(2281.205 -487.774)"/>
        <path id="路径_2136" data-name="路径 2136" class="cls-2" d="M-2280.3,495.342v-1l-.288-.119a.672.672,0,0,0-.236-.058.2.2,0,0,0-.183.1.777.777,0,0,0-.052.278h-.08V493.6h.08a.412.412,0,0,0,.131.25,1.738,1.738,0,0,0,.445.242l2.351,1.011v.041l-2.417,1.019a1.478,1.478,0,0,0-.432.24.321.321,0,0,0-.079.2h-.08v-1.368h.08v.056a.405.405,0,0,0,.048.232.116.116,0,0,0,.1.046.265.265,0,0,0,.081-.013c.013,0,.067-.024.162-.062Zm.16-.071,1.015-.42-1.015-.434Z" transform="translate(2281.205 -487.037)"/>
        <path id="路径_2137" data-name="路径 2137" class="cls-2" d="M-2278.134,497.786a1.382,1.382,0,0,1-.41,1.1,1.512,1.512,0,0,1-1.094.422,1.607,1.607,0,0,1-.985-.316,1.376,1.376,0,0,1-.566-1.177,1.409,1.409,0,0,1,.539-1.181,1.6,1.6,0,0,1,1.01-.329,1.5,1.5,0,0,1,1.1.429A1.331,1.331,0,0,1-2278.134,497.786Zm-.138.025a.637.637,0,0,0-.414-.59,2.276,2.276,0,0,0-.973-.165,1.953,1.953,0,0,0-1.115.255.572.572,0,0,0-.251.5.574.574,0,0,0,.108.358.9.9,0,0,0,.445.287,2.587,2.587,0,0,0,.8.1,2.755,2.755,0,0,0,.876-.1.848.848,0,0,0,.408-.266A.6.6,0,0,0-2278.272,497.811Z" transform="translate(2281.19 -486.31)"/>
        <path id="路径_2138" data-name="路径 2138" class="cls-2" d="M-2278.189,501.621h-.8v-.076a1.332,1.332,0,0,0,.4-.147.579.579,0,0,0,.191-.223.682.682,0,0,0,.039-.278v-.211h-2.272a.947.947,0,0,0-.283.024.222.222,0,0,0-.1.094.37.37,0,0,0-.042.19v.094h-.08v-1.481h.08v.094a.374.374,0,0,0,.046.2.2.2,0,0,0,.1.086.934.934,0,0,0,.274.023h2.272v-.2a.581.581,0,0,0-.125-.415.847.847,0,0,0-.5-.23v-.079h.8Z" transform="translate(2281.205 -485.563)"/>
        <path id="路径_2139" data-name="路径 2139" class="cls-2" d="M-2281.055,502.918h-.08V501.44h.08v.094a.381.381,0,0,0,.046.2.2.2,0,0,0,.1.084.932.932,0,0,0,.274.023h1.938a1.017,1.017,0,0,0,.283-.023.215.215,0,0,0,.1-.093.37.37,0,0,0,.042-.189v-.094h.081v1.478h-.081v-.094a.379.379,0,0,0-.046-.2.2.2,0,0,0-.1-.085.927.927,0,0,0-.273-.023h-1.938a.949.949,0,0,0-.283.024.219.219,0,0,0-.1.093.368.368,0,0,0-.042.189Z" transform="translate(2281.205 -484.929)"/>
        <path id="路径_2140" data-name="路径 2140" class="cls-2" d="M-2278.174,503.9l-1.829,1.4h1.268a.62.62,0,0,0,.358-.074.39.39,0,0,0,.122-.336h.082v.935h-.082a.7.7,0,0,0-.061-.241.257.257,0,0,0-.124-.1.884.884,0,0,0-.294-.034h-2.454v-.071l2.454-1.912h-1.873a.423.423,0,0,0-.344.112.4.4,0,0,0-.089.255v.067h-.08v-1h.08a.439.439,0,0,0,.1.326.48.48,0,0,0,.333.091h2.079l.077-.061a.569.569,0,0,0,.155-.157.475.475,0,0,0,.04-.2h.082Z" transform="translate(2281.19 -484.537)"/>
        <path id="路径_2141" data-name="路径 2141" class="cls-2" d="M-2278.107,508.36h-1.039v-.076a1.326,1.326,0,0,0,.647-.42.955.955,0,0,0,.222-.61.77.77,0,0,0-.185-.528,1.01,1.01,0,0,0-.519-.3,2.662,2.662,0,0,0-.682-.088,2.613,2.613,0,0,0-.743.1.85.85,0,0,0-.469.31.864.864,0,0,0-.15.509,1.006,1.006,0,0,0,.023.209,1.436,1.436,0,0,0,.066.219h.613a.681.681,0,0,0,.225-.023.218.218,0,0,0,.093-.1.339.339,0,0,0,.042-.174v-.072h.08v1.374h-.08a.573.573,0,0,0-.046-.218.222.222,0,0,0-.112-.1.631.631,0,0,0-.2-.019h-.613a2.749,2.749,0,0,1-.19-.563,2.872,2.872,0,0,1-.063-.608,1.71,1.71,0,0,1,.114-.669,1.662,1.662,0,0,1,.3-.469,1.419,1.419,0,0,1,.419-.318,1.525,1.525,0,0,1,.671-.146,1.544,1.544,0,0,1,1.123.449,1.51,1.51,0,0,1,.458,1.128,1.926,1.926,0,0,1-.034.379,1.883,1.883,0,0,1-.1.3,1.179,1.179,0,0,0-.081.244.16.16,0,0,0,.044.108.4.4,0,0,0,.169.093Z" transform="translate(2281.19 -483.815)"/>
      </g>
    </g>
  </g>
</svg>
