<svg xmlns="http://www.w3.org/2000/svg" width="20" height="20" viewBox="0 0 20 20">
  <defs>
    <style>
      .cls-1 {
        fill: none;
      }

      .cls-2 {
        fill: #ece8e5;
      }
    </style>
  </defs>
  <g id="头像" transform="translate(-553 -159)">
    <g id="消息" transform="translate(-64 -1)">
      <rect id="矩形_890" data-name="矩形 890" class="cls-1" width="20" height="20" transform="translate(617 160)"/>
    </g>
    <g id="组_4876" data-name="组 4876" transform="translate(441 87)">
      <path id="路径_2157" data-name="路径 2157" class="cls-2" d="M257.423,83.659a5.138,5.138,0,0,1-3.694-1.56,5.407,5.407,0,0,1,0-7.536,5.15,5.15,0,0,1,7.387,0,5.407,5.407,0,0,1,0,7.536A5.132,5.132,0,0,1,257.423,83.659Zm0-9.018a3.691,3.691,0,1,0,3.617,3.69A3.658,3.658,0,0,0,257.423,74.64Z" transform="translate(-135.423 0)"/>
      <path id="路径_2158" data-name="路径 2158" class="cls-2" d="M129.2,521.882a.812.812,0,0,1-.8-.82,6.394,6.394,0,1,0-12.785,0,.8.8,0,1,1-1.608,0,8.246,8.246,0,0,1,.629-3.178,8.131,8.131,0,0,1,1.714-2.593,7.984,7.984,0,0,1,2.542-1.749,7.881,7.881,0,0,1,6.23,0,7.951,7.951,0,0,1,2.542,1.749A8.219,8.219,0,0,1,130,521.062.812.812,0,0,1,129.2,521.882Z" transform="translate(0 -430.882)"/>
    </g>
  </g>
</svg>
