<svg xmlns="http://www.w3.org/2000/svg" width="36" height="36" viewBox="0 0 36 36">
  <defs>
    <style>
      .cls-1 {
        fill: none;
      }

      .cls-2 {
        fill: #333;
      }
    </style>
  </defs>
  <g id="不可烘干" transform="translate(-795 -1638)">
    <g id="组_4863" data-name="组 4863" transform="translate(-2)">
      <rect id="矩形_886" data-name="矩形 886" class="cls-1" width="36" height="36" transform="translate(797 1638)"/>
      <path id="路径_2200" data-name="路径 2200" class="cls-2" d="M94.633,93.414h0l-.516-.516c0-.053,0-.107,0-.164-.02-7.574-.008-15.148-.014-22.723q0-.1,0-.191l.528-.528h0L96.8,67.128a.864.864,0,0,0-1.222-1.222L92.92,68.561l-.011.011q-.132,0-.264,0c-3.765,0-18.823,0-22.588,0-.094,0-.181,0-.264,0l-.011-.011h0l-2.656-2.656A.864.864,0,0,0,65.9,67.128l2.655,2.655.037.037q0,.1,0,.191c-.006,7.574.007,15.148-.014,22.723q0,.082,0,.164l-.024.024L65.9,95.578A.864.864,0,0,0,67.125,96.8l2.567-2.567.1-.1c.066,0,.134.006.207.006,3.784-.011,18.92-.011,22.7,0,.072,0,.14,0,.207-.006l.5.5h0L95.575,96.8A.864.864,0,0,0,96.8,95.578l-2.164-2.164ZM92.6,71.521q-.054,9.9,0,19.794c0,.022,0,.042,0,.064L88.439,87.22a9.2,9.2,0,0,0,0-11.734L92.6,71.33c0,.061,0,.124,0,.191ZM80.128,81.353,75.571,85.91a7.353,7.353,0,0,1,0-9.114Zm-3.335-5.779a7.353,7.353,0,0,1,9.114,0L81.35,80.131l-4.557-4.557Zm4.557,7,4.557,4.557a7.353,7.353,0,0,1-9.114,0l4.557-4.557Zm1.222-1.222L87.129,76.8a7.353,7.353,0,0,1,0,9.114ZM91.181,70.3l-3.964,3.964a9.2,9.2,0,0,0-11.734,0L71.519,70.3c3.592.02,16.07.02,19.662,0ZM70.1,91.314q.054-9.9,0-19.793c0-.067,0-.13,0-.191l4.156,4.156a9.2,9.2,0,0,0,0,11.734L70.1,91.378c0-.022,0-.042,0-.064Zm1.281,1.228,4.1-4.1a9.2,9.2,0,0,0,11.734,0l4.1,4.1c-3.441-.021-16.494-.021-19.935,0Z" transform="translate(733.35 1575.347)"/>
    </g>
  </g>
</svg>
