<svg xmlns="http://www.w3.org/2000/svg" width="36" height="36" viewBox="0 0 36 36">
  <defs>
    <style>
      .cls-1 {
        fill: none;
      }

      .cls-2 {
        fill: #333;
      }
    </style>
  </defs>
  <g id="不可熨烫" transform="translate(-624 -1638)">
    <g id="组_4861" data-name="组 4861" transform="translate(-2)">
      <rect id="矩形_884" data-name="矩形 884" class="cls-1" width="36" height="36" transform="translate(626 1638)"/>
      <path id="路径_2198" data-name="路径 2198" class="cls-2" d="M91.389,149.675c-1.567-5.342-3.236-10.657-4.7-16.027a6.47,6.47,0,0,0-.813-1.882l3.113-3.113a.862.862,0,1,0-1.219-1.219l-3.121,3.121a5.893,5.893,0,0,0-3.164-.712c-4.208,0-8.459,0-12.667,0-.252,0-1.221.087-1.2.869.02.695.589.884,1.2.884,4.028,0,9.249-.005,13.276,0a4.742,4.742,0,0,1,1.359.151l-7.634,7.634h-.157L63.713,127.433a.862.862,0,0,0-1.219,1.219l10.764,10.764c-1.247.022-2.493.052-3.739.1a9.731,9.731,0,0,0-7.059,3,10.766,10.766,0,0,0-2.576,7.464c-.028,1.423.082,1.531,1.517,1.532h2.284l-1.191,1.191a.862.862,0,0,0,1.219,1.219l2.41-2.41H85.361l2.409,2.409a.862.862,0,1,0,1.219-1.219L87.8,151.519h2.192c1.648,0,1.861-.263,1.4-1.844Zm-6.763-16.659c.692,2.019,1.265,4.087,1.948,6.324-1.9,0-3.549-.014-5.2,0q-1.55.016-3.1.023l6.35-6.35Zm-23,16.8c0-3.319,1.593-6.739,4.693-7.81a16.8,16.8,0,0,1,5.047-.848c.906-.02,1.813-.032,2.719-.04l-8.7,8.7H61.629Zm6.2,0,7.914-7.914,7.914,7.914Zm18.266,0L77.38,141.1c2.955,0,5.91.02,8.865,0a1.088,1.088,0,0,1,1.266.941c.712,2.547,1.48,5.079,2.273,7.775h-3.69Z" transform="translate(568.119 1515.819)"/>
    </g>
  </g>
</svg>
