<svg xmlns="http://www.w3.org/2000/svg" width="36" height="36" viewBox="0 0 36 36">
  <defs>
    <style>
      .cls-1 {
        fill: none;
      }

      .cls-2 {
        fill: #333;
      }
    </style>
  </defs>
  <g id="不可漂白" transform="translate(-546 -1638)">
    <g id="组_4860" data-name="组 4860" transform="translate(-2)">
      <rect id="矩形_883" data-name="矩形 883" class="cls-1" width="36" height="36" transform="translate(548 1638)"/>
      <path id="路径_2197" data-name="路径 2197" class="cls-2" d="M123.863,105.316c-1.41-2.513-4.379-7.833-7.135-12.769l6.462-6.462a.856.856,0,0,0-1.21-1.21l-6.119,6.119c-2.222-3.979-4.169-7.466-4.843-8.662s-1.272-1.189-1.979.016c-.072.123-.136.251-.206.376L104.212,91l-6.123-6.123a.856.856,0,0,0-1.21,1.21l6.466,6.466q-3.7,6.627-7.4,13.252c-.785,1.4-.484,1.957,1.125,1.959l2.025,0-2.212,2.212a.856.856,0,0,0,1.21,1.21l3.422-3.422c4.98,0,12.273,0,17.047,0l3.422,3.422a.856.856,0,1,0,1.21-1.21l-2.212-2.212h1.487c2.338,0,2.55-.394,1.4-2.447Zm-13.738-21.2,4.516,8.1-4.607,4.607-4.5-4.5ZM97.911,105.98l6.76-12.1,4.153,4.153-7.95,7.95H97.911Zm5.383,0,6.74-6.74,6.74,6.74h-13.48Zm15.9,0-7.95-7.95,4.263-4.263,6.809,12.213Z" transform="translate(456.475 1559.564)"/>
    </g>
  </g>
</svg>
