<svg xmlns="http://www.w3.org/2000/svg" width="36" height="36" viewBox="0 0 36 36">
  <defs>
    <style>
      .cls-1 {
        fill: none;
      }

      .cls-2 {
        fill: #333;
      }
    </style>
  </defs>
  <g id="不可水洗" transform="translate(-473 -1638)">
    <g id="不可水洗-2" data-name="不可水洗">
      <rect id="矩形_882" data-name="矩形 882" class="cls-1" width="36" height="36" transform="translate(473 1638)"/>
      <path id="路径_2196" data-name="路径 2196" class="cls-2" d="M48.927,130.122c-.76-.238-1,.328-1.2.9-.178.5-.355,1.008-.547,1.555a6.86,6.86,0,0,0-2.415-.538,8.015,8.015,0,0,0-2.805,1.218,2.8,2.8,0,0,1-1.944.69l5.289-5.289a.864.864,0,0,0-1.222-1.222L38.412,133.1c-1.965-1.351-2.779-1.3-4.8.165-.709.515-1.138.754-1.6.721-.46.032-.889-.206-1.6-.721-2.016-1.465-2.83-1.517-4.8-.165l-5.668-5.668a.864.864,0,0,0-1.222,1.222l5.289,5.289a2.8,2.8,0,0,1-1.944-.69,8.015,8.015,0,0,0-2.805-1.218,6.861,6.861,0,0,0-2.415.538c-.192-.546-.369-1.051-.547-1.555-.2-.57-.443-1.136-1.2-.9s-.641.832-.433,1.439q3.229,9.418,6.431,18.845l-2.373,2.373A.864.864,0,0,0,19.957,154l2.633-2.633q4.714-.01,9.429-.011t9.429.011L44.08,154a.864.864,0,0,0,1.222-1.222l-2.373-2.373q3.191-9.431,6.43-18.845c.208-.606.335-1.2-.433-1.439Zm-18.974,4.4a3.519,3.519,0,0,0,2.066.836,3.52,3.52,0,0,0,2.066-.836c1.562-1.17,1.96-1.289,3.322-.413l-5.388,5.388-5.388-5.388c1.361-.876,1.759-.757,3.322.413ZM22.3,148.657c-1.453-4.415-2.967-8.809-4.458-13.212-.473-1.4.333-2.364,1.787-2.02a6.106,6.106,0,0,1,1.891.983c1.5,1.011,2.373,1.228,3.6.633l5.676,5.676-8.339,8.339A3.1,3.1,0,0,1,22.3,148.657Zm9.721,1.172c-2.638,0-5.277-.042-7.913.023l7.913-7.913,7.913,7.913c-2.636-.066-5.275-.026-7.913-.023ZM46.2,135.445c-1.49,4.4-3,8.8-4.458,13.212a3.1,3.1,0,0,1-.16.4l-8.339-8.339,5.676-5.676c1.23.595,2.1.378,3.6-.633a6.105,6.105,0,0,1,1.891-.983c1.455-.344,2.26.623,1.787,2.02Z" transform="translate(459.481 1515.819)"/>
    </g>
  </g>
</svg>
