<svg xmlns="http://www.w3.org/2000/svg" width="36" height="36" viewBox="0 0 36 36">
  <defs>
    <style>
      .cls-1 {
        fill: none;
      }

      .cls-2 {
        fill: #333;
      }
    </style>
  </defs>
  <g id="悬阴晾干" transform="translate(-709 -1638)">
    <g id="组_4862" data-name="组 4862" transform="translate(2)">
      <rect id="矩形_885" data-name="矩形 885" class="cls-1" width="36" height="36" transform="translate(707 1638)"/>
      <path id="路径_2199" data-name="路径 2199" class="cls-2" d="M174.412,149.929c0-1.227-.224-1.44-1.461-1.441-3.758,0-18.792,0-22.55,0-1.237,0-1.46.214-1.461,1.441-.006,7.562.007,15.123-.014,22.685,0,1.021.4,1.406,1.417,1.4,3.778-.011,18.888-.011,22.666,0,1.013,0,1.419-.381,1.417-1.4-.02-7.561-.008-15.123-.014-22.685Zm-22.764.287c3.343.021,16.714.021,20.056,0,.968-.006,1.207.286,1.2,1.22,0,.321,0,.642,0,.962a1.5,1.5,0,0,1-.915.806,30.406,30.406,0,0,1-4.691,1.133,43.389,43.389,0,0,1-13.839-.267,9.689,9.689,0,0,1-2.25-.723,2.148,2.148,0,0,1-.757-.855v.018c0-.358,0-.716,0-1.075-.005-.934.234-1.226,1.2-1.22ZM171.7,172.423c-3.342-.021-16.711-.021-20.053,0-.973.006-1.208-.3-1.2-1.227q.044-8.094.015-16.189a45.3,45.3,0,0,0,22.431-.2q-.03,8.2.014,16.392c0,.93-.23,1.233-1.2,1.227Z" transform="translate(563.074 1494.514)"/>
    </g>
  </g>
</svg>
