<svg xmlns="http://www.w3.org/2000/svg" width="18" height="18" viewBox="0 0 18 18">
  <defs>
    <style>
      .cls-1 {
        fill: #ece8e5;
      }
    </style>
  </defs>
  <g id="搜索" transform="translate(-126.9 -131.5)">
    <path id="路径_2155" data-name="路径 2155" class="cls-1" d="M135.039,147.9a8.2,8.2,0,1,1,8.139-8.2A8.18,8.18,0,0,1,135.039,147.9Zm0-14.854a6.65,6.65,0,1,0,6.6,6.65A6.633,6.633,0,0,0,135.039,133.049Z" transform="translate(0 0)"/>
    <path id="路径_2156" data-name="路径 2156" class="cls-1" d="M672.413,677.585a.783.783,0,0,1-.537-.217l-3.8-3.608a.8.8,0,0,1-.033-1.114.779.779,0,0,1,1.105-.033l3.8,3.61a.8.8,0,0,1,.033,1.114A.782.782,0,0,1,672.413,677.585Z" transform="translate(-528.295 -528.085)"/>
  </g>
</svg>
