<svg xmlns="http://www.w3.org/2000/svg" width="30" height="30" viewBox="0 0 30 30">
  <defs>
    <style>
      .cls-1 {
        fill: #fff;
      }

      .cls-2 {
        fill: #ccc;
      }
    </style>
  </defs>
  <g id="未收藏" transform="translate(-790.5 -320)">
    <path id="路径_2201" data-name="路径 2201" class="cls-1" d="M79.37,64.021a15,15,0,1,0,15,15A15,15,0,0,0,79.37,64.021Z" transform="translate(726.13 255.979)"/>
    <path id="路径_2201_-_轮廓" data-name="路径 2201 - 轮廓" class="cls-2" d="M79.37,65.021a14,14,0,1,0,9.9,4.1,13.908,13.908,0,0,0-9.9-4.1m0-1a15,15,0,1,1-15,15A15,15,0,0,1,79.37,64.021Z" transform="translate(726.13 255.979)"/>
    <path id="路径_2202" data-name="路径 2202" class="cls-2" d="M83.393,84.8c-1.929,1.367-3.581,3.288-3.78,4.068a10.338,10.338,0,0,0-3.8-4.029c-2.149-1.408-5.377-2.725-5.352-6.248.044-6.414,6.771-7.7,9.137-2.177,2.258-5.306,9.1-4.291,9.146,2.139C88.77,82.07,85.5,83.3,83.393,84.8Z" transform="translate(725.538 255.105)"/>
  </g>
</svg>
