<svg id="箭头-点击进入" xmlns="http://www.w3.org/2000/svg" width="43" height="43" viewBox="0 0 43 43">
  <defs>
    <style>
      .cls-1 {
        fill: #fff;
      }
    </style>
  </defs>
  <path id="椭圆_2" data-name="椭圆 2" class="cls-1" d="M21.5,3A18.5,18.5,0,0,0,8.419,34.581,18.5,18.5,0,1,0,34.581,8.419,18.379,18.379,0,0,0,21.5,3m0-3A21.5,21.5,0,1,1,0,21.5,21.5,21.5,0,0,1,21.5,0Z"/>
  <path id="路径_10" data-name="路径 10" class="cls-1" d="M242.345,844.387H222.282a1.5,1.5,0,0,1,0-3h20.063a1.5,1.5,0,1,1,0,3Z" transform="translate(-213 -821.387)"/>
  <path id="路径_11" data-name="路径 11" class="cls-1" d="M232.313,853.684a1.5,1.5,0,0,1-1.173-2.434l7.764-9.76-7.693-8.353a1.5,1.5,0,0,1,2.207-2.032l8.563,9.3a1.5,1.5,0,0,1,.071,1.95l-8.563,10.765A1.5,1.5,0,0,1,232.313,853.684Z" transform="translate(-211 -820.621)"/>
</svg>
