<svg xmlns="http://www.w3.org/2000/svg" width="26" height="26" viewBox="0 0 26 26">
  <defs>
    <style>
      .cls-1 {
        fill: #ff9606;
      }

      .cls-2 {
        fill: #fff;
      }
    </style>
  </defs>
  <g id="视频" transform="translate(-389 -410)">
    <g id="组_3" data-name="组 3" transform="translate(389 410)">
      <path id="路径_7" data-name="路径 7" class="cls-1" d="M21.666,26H4.334A4.346,4.346,0,0,1,0,21.666V4.334A4.346,4.346,0,0,1,4.334,0H21.666A4.346,4.346,0,0,1,26,4.334V21.666A4.346,4.346,0,0,1,21.666,26Z"/>
      <path id="路径_8" data-name="路径 8" class="cls-2" d="M244.5,271.656a.506.506,0,0,0-.434-.043l-2.058.91v-1.842a.879.879,0,0,0-.889-.888h-9.836a.888.888,0,0,0-.889.888v7.15a.879.879,0,0,0,.889.889h9.836a.879.879,0,0,0,.889-.889v-1.321l2.058.91a.446.446,0,0,0,.434-.044.425.425,0,0,0,.2-.368v-4.984A.483.483,0,0,0,244.5,271.656Zm-5.959,2.969-2.9,1.669a.46.46,0,0,1-.412,0,.419.419,0,0,1-.216-.369v-3.315a.448.448,0,0,1,.216-.369.46.46,0,0,1,.412,0l2.9,1.669a.42.42,0,0,1,.217.369A.466.466,0,0,1,238.546,274.624Zm-1.213-5.265a1.593,1.593,0,0,1-1.365-.78,1.546,1.546,0,0,1,0-1.56,1.592,1.592,0,0,1,1.365-.78,1.56,1.56,0,1,1,0,3.12Zm-3.142,0a1.127,1.127,0,1,1,1.127-1.126A1.119,1.119,0,0,1,234.191,269.359Z" transform="translate(-224.55 -259.479)"/>
    </g>
  </g>
</svg>
