<svg xmlns="http://www.w3.org/2000/svg" width="18" height="18" viewBox="0 0 18 18">
  <defs>
    <style>
      .cls-1 {
        fill: #cda46c;
      }
    </style>
  </defs>
  <path id="通知" class="cls-1" d="M109.414,129.687l-.009,0a.562.562,0,0,1-.184-.749c1.857-3.441.489-7.348-.08-8.672a.554.554,0,0,1,.252-.711l.011-.007a.557.557,0,0,1,.771.265c.65,1.489,2.157,5.786.018,9.69A.553.553,0,0,1,109.414,129.687Zm-4.458-13.91-6.348,4.389a.535.535,0,0,1-.243.059H94.425a1.124,1.124,0,0,0-1.125,1.12v6.82a1.124,1.124,0,0,0,1.125,1.12h3.919l6.7,4.283a1.132,1.132,0,0,0,1.562-1.044V116.785A1.135,1.135,0,0,0,104.956,115.777Z" transform="translate(-93.3 -115.654)"/>
</svg>
