<svg xmlns="http://www.w3.org/2000/svg" width="19.999" height="20" viewBox="0 0 19.999 20">
  <defs>
    <style>
      .cls-1 {
        fill: #fff;
      }
    </style>
  </defs>
  <g id="悬浮导航-快速补货" transform="translate(1252.888 -545.645)">
    <g id="组_4755" data-name="组 4755" transform="translate(-1252.888 545.645)">
      <path id="路径_2122" data-name="路径 2122" class="cls-1" d="M-1234.714,548.779a.42.42,0,0,1,.414.415v15.133a.42.42,0,0,1-.414.414h-16.349a.419.419,0,0,1-.413-.414V549.194a.419.419,0,0,1,.413-.415h16.349m0-1.411h-16.349a1.83,1.83,0,0,0-1.825,1.826v15.133a1.83,1.83,0,0,0,1.825,1.825h16.349a1.831,1.831,0,0,0,1.825-1.825V549.194A1.831,1.831,0,0,0-1234.714,547.368Z" transform="translate(1252.888 -546.152)"/>
      <path id="矩形_833" data-name="矩形 833" class="cls-1" d="M1.417,0H8.583A1.418,1.418,0,0,1,10,1.418V2.34A1.417,1.417,0,0,1,8.584,3.757H1.418A1.418,1.418,0,0,1,0,2.339V1.417A1.417,1.417,0,0,1,1.417,0Z" transform="translate(4.999)"/>
    </g>
    <g id="组_4756" data-name="组 4756" transform="translate(-1248.837 551.011)">
      <path id="路径_2123" data-name="路径 2123" class="cls-1" d="M-1235.956,559.2h-.706a4.517,4.517,0,0,1-1.328,3.208,4.519,4.519,0,0,1-3.208,1.329,4.517,4.517,0,0,1-3.208-1.329,4.521,4.521,0,0,1-1.329-3.208,4.522,4.522,0,0,1,1.329-3.208,4.517,4.517,0,0,1,3.208-1.329,4.519,4.519,0,0,1,3.208,1.329,4.519,4.519,0,0,1,1.328,3.208h1.411a5.948,5.948,0,0,0-5.948-5.948,5.948,5.948,0,0,0-5.948,5.948,5.948,5.948,0,0,0,5.948,5.947,5.947,5.947,0,0,0,5.948-5.947Z" transform="translate(1247.146 -553.25)"/>
      <path id="路径_2124" data-name="路径 2124" class="cls-1" d="M-1242.662,561.559l1.338,1.254a.705.705,0,0,0,.981-.016l3.135-3.135a.706.706,0,0,0,0-1,.7.7,0,0,0-1,0l-2.652,2.652-.839-.787a.7.7,0,0,0-1,.032.706.706,0,0,0,.032,1Z" transform="translate(1245.891 -554.783)"/>
    </g>
  </g>
</svg>
