<svg xmlns="http://www.w3.org/2000/svg" width="20" height="20.001" viewBox="0 0 20 20.001">
  <defs>
    <style>
      .cls-1 {
        fill: #fff;
      }
    </style>
  </defs>
  <g id="悬浮导航-在线客服" transform="translate(1250.571 -583.816)">
    <path id="路径_2126" data-name="路径 2126" class="cls-1" d="M-1246.1,596.4h6.152a.7.7,0,0,0,.706-.7.7.7,0,0,0-.706-.7h-6.152a.7.7,0,0,0-.706.7.7.7,0,0,0,.706.7" transform="translate(-1.107 -3.292)"/>
    <path id="路径_2127" data-name="路径 2127" class="cls-1" d="M-1246.1,600.572h10.6a.7.7,0,0,0,.706-.7.7.7,0,0,0-.706-.7h-10.6a.7.7,0,0,0-.706.7.7.7,0,0,0,.706.7" transform="translate(-1.107 -4.52)"/>
    <path id="路径_2128" data-name="路径 2128" class="cls-1" d="M-1233.132,589.193a1.811,1.811,0,0,0-.533-1.282,1.819,1.819,0,0,0-1.288-.531h-13.8a1.821,1.821,0,0,0-1.287.531,1.807,1.807,0,0,0-.533,1.283v11.655a1.806,1.806,0,0,0,.533,1.282,1.822,1.822,0,0,0,1.288.532h6.822l1.062,1.2a.784.784,0,0,0,.071.083l.55.548h0a1.268,1.268,0,0,0,.9.37,1.267,1.267,0,0,0,.9-.37h0l.551-.548.032-.037h0l1.094-1.252h1.827a1.821,1.821,0,0,0,1.286-.531,1.805,1.805,0,0,0,.533-1.281h0Zm-1.535,11.938a.4.4,0,0,1-.285.118h-2.149a.709.709,0,0,0-.534.242l-1.3,1.487-.416.413-.4-.4-.006-.007-1.317-1.494a.705.705,0,0,0-.533-.24h-7.142a.4.4,0,0,1-.286-.119.4.4,0,0,1-.119-.284V589.193a.4.4,0,0,1,.119-.284.4.4,0,0,1,.286-.119h13.8a.4.4,0,0,1,.285.119.4.4,0,0,1,.119.284v11.653h0A.4.4,0,0,1-1234.668,601.131Z" transform="translate(0 -1.049)"/>
    <path id="路径_2129" data-name="路径 2129" class="cls-1" d="M-1244.656,585.227h11.992a2.2,2.2,0,0,1,1.562.646,2.185,2.185,0,0,1,.648,1.556v9.683a.707.707,0,0,0,.708.706.707.707,0,0,0,.708-.706v-9.683a3.6,3.6,0,0,0-1.062-2.555,3.626,3.626,0,0,0-2.564-1.058h-11.992a.707.707,0,0,0-.708.706A.707.707,0,0,0-1244.656,585.227Z" transform="translate(-1.533)"/>
  </g>
</svg>
