<svg xmlns="http://www.w3.org/2000/svg" width="20" height="20.001" viewBox="0 0 20 20.001">
  <defs>
    <style>
      .cls-1 {
        fill: #fff;
      }
    </style>
  </defs>
  <g id="悬浮导航-订货清单" transform="translate(1252.888 -510.645)">
    <path id="路径_2125" data-name="路径 2125" class="cls-1" d="M-1234.713,513.779a.42.42,0,0,1,.414.415v15.134a.419.419,0,0,1-.414.414h-16.35a.419.419,0,0,1-.413-.414V514.194a.419.419,0,0,1,.413-.415h16.35m0-1.411h-16.35a1.831,1.831,0,0,0-1.825,1.826v15.134a1.83,1.83,0,0,0,1.825,1.825h16.35a1.831,1.831,0,0,0,1.825-1.825V514.194A1.831,1.831,0,0,0-1234.713,512.368Z" transform="translate(0 -0.507)"/>
    <rect id="矩形_835" data-name="矩形 835" class="cls-1" width="10.001" height="1.446" rx="0.723" transform="translate(-1247.889 517.392)"/>
    <rect id="矩形_836" data-name="矩形 836" class="cls-1" width="10.001" height="1.446" rx="0.723" transform="translate(-1247.889 521.02)"/>
    <rect id="矩形_837" data-name="矩形 837" class="cls-1" width="10.001" height="1.446" rx="0.723" transform="translate(-1247.889 524.648)"/>
    <path id="矩形_838" data-name="矩形 838" class="cls-1" d="M1.417,0H8.583A1.418,1.418,0,0,1,10,1.418V2.34A1.417,1.417,0,0,1,8.584,3.757H1.418A1.418,1.418,0,0,1,0,2.339V1.417A1.417,1.417,0,0,1,1.417,0Z" transform="translate(-1247.889 510.645)"/>
  </g>
</svg>
