<svg xmlns="http://www.w3.org/2000/svg" width="20" height="20" viewBox="0 0 20 20">
  <defs>
    <style>
      .cls-1 {
        fill: #fff;
      }

      .cls-2 {
        fill: none;
      }
    </style>
  </defs>
  <g id="悬浮导航-返回顶部" transform="translate(-829 -245)">
    <path id="路径_9" data-name="路径 9" class="cls-1" d="M129.481,350.64a.5.5,0,0,0-.708.708l7.012,7.012a.5.5,0,0,0,.708,0l7.012-7.012a.5.5,0,0,0-.708-.708l-6.658,6.658Z" transform="translate(975.139 608.505) rotate(180)"/>
    <path id="路径_9_-_轮廓" data-name="路径 9 - 轮廓" class="cls-1" d="M129.14,350.255h0a.748.748,0,0,1,.512.2l.006.006,6.481,6.481,6.487-6.487a.751.751,0,0,1,1.061,1.061l-.006.006-7.012,7.012a.746.746,0,0,1-.531.22h0a.746.746,0,0,1-.531-.22l-7.018-7.018a.751.751,0,0,1,.549-1.263Zm.168.565a.251.251,0,0,0-.354.354l7.008,7.008a.251.251,0,0,0,.354,0l7.008-7.008a.251.251,0,0,0-.354-.354l-6.831,6.831Z" transform="translate(975.139 608.505) rotate(180)"/>
    <rect id="矩形_893" data-name="矩形 893" class="cls-2" width="20" height="20" transform="translate(829 245)"/>
  </g>
</svg>
