<svg xmlns="http://www.w3.org/2000/svg" width="180" height="70" viewBox="0 0 180 70">
  <defs>
    <style>
      .cls-1 {
        fill: #cda46c;
      }

      .cls-2, .cls-3 {
        fill: #fff;
      }

      .cls-3 {
        font-size: 16px;
        font-family: MicrosoftYaHei, Microsoft YaHei;
      }

      .cls-4 {
        fill: rgba(0,0,0,0);
      }
    </style>
  </defs>
  <g id="logo2" transform="translate(-564 -57)">
    <rect id="矩形_889" data-name="矩形 889" class="cls-1" width="180" height="70" transform="translate(564 57)"/>
    <g id="组_4872" data-name="组 4872" transform="translate(2931.584 -419.307)">
      <g id="组_4758" data-name="组 4758" transform="translate(-2271.193 485.307)">
        <path id="路径_2130" data-name="路径 2130" class="cls-2" d="M-2254.445,489a29.056,29.056,0,0,1-3.836,1.109,2.943,2.943,0,0,0,2.474,1.263,12.387,12.387,0,0,0,2.281-.571,13.11,13.11,0,0,1,.387,3.987c-.636.116-1.26.279-1.892.4a25.766,25.766,0,0,0-2.674.468c.518.589,1.164,1.307,2.028,1.216a13.729,13.729,0,0,1,2.548-.249c0,1.458-.209,2.906-.144,4.366-2.157.451-4.351.7-6.54.944a8.566,8.566,0,0,0,1.317,1.353,2.013,2.013,0,0,0,1.774.191,69.171,69.171,0,0,1,12.6-1.2c.086-.65-.405-1.121-.759-1.6a1.377,1.377,0,0,0-1.126-.681,45.622,45.622,0,0,0-5.146.71c-.193-1.478.12-2.962.043-4.447a18.812,18.812,0,0,1,3.19-.524,3.7,3.7,0,0,0,1.6-.385c-.483-.607-.922-1.588-1.832-1.525a12.351,12.351,0,0,0-2.853.605,22.687,22.687,0,0,1,.46-3.8,5.529,5.529,0,0,1-2.031-.23,15.015,15.015,0,0,1,1.44-.783,31.956,31.956,0,0,1,4.468-2.321c-.353-.263-.729-.493-1.1-.728a14.137,14.137,0,0,1-1.484-1.271A11.19,11.19,0,0,1-2254.445,489Z" transform="translate(2271.616 -485.307)"/>
        <path id="路径_2131" data-name="路径 2131" class="cls-2" d="M-2264.428,490.109a16.281,16.281,0,0,1-3.956.906,3.254,3.254,0,0,0,1.377,1.5c.121.1.261.033.389-.014a29.213,29.213,0,0,1,3.672-1.318,21.08,21.08,0,0,1-1.572,4.116,5.889,5.889,0,0,1-1.754,2.082c-.038.685.19,1.362.145,2.054a6.8,6.8,0,0,1,3.563-1.12,14.463,14.463,0,0,1-1.618,4.326c-1.26-.429-2.444-1.06-3.727-1.43a1.412,1.412,0,0,0-.776-.026,7.051,7.051,0,0,0-.044,1.4c1.135.511,2.354.808,3.457,1.395a11.237,11.237,0,0,1-2.323,2.389,17.4,17.4,0,0,1-3.932,2.193,3.812,3.812,0,0,0,1.807.89,3.985,3.985,0,0,0,3.3-1.085,20.4,20.4,0,0,0,2.97-3.438c.882.337,1.692.825,2.537,1.237,2.484,1.243,4.921,2.571,7.329,3.954a10.313,10.313,0,0,0,3.426,1.477,37.807,37.807,0,0,0,8.715-.14,1.844,1.844,0,0,0,1.635-.829,11.589,11.589,0,0,0-2.1-.74c-1.585-.5-3.188-.951-4.807-1.327-1.465-.364-2.959-.574-4.437-.864a24.519,24.519,0,0,1-3.676-1.069c-1.41-.5-2.717-1.247-4.137-1.726-1.168-.541-2.327-1.1-3.519-1.586.531-1.291,1.307-2.465,1.792-3.775a3.909,3.909,0,0,1,1.179-1.618c-.5-.219-1.017-.386-1.509-.617-.382-.175-.7-.461-1.088-.629a6.789,6.789,0,0,1-2.165.63c.5-.837,1.1-1.608,1.669-2.4a27.389,27.389,0,0,1,3.632-4.157,9.5,9.5,0,0,1-3.813-1.673A5.267,5.267,0,0,1-2264.428,490.109Z" transform="translate(2271.527 -485.278)"/>
      </g>
      <g id="组_4759" data-name="组 4759" transform="translate(-2315.584 486.79)">
        <path id="路径_2132" data-name="路径 2132" class="cls-2" d="M-2289.6,503.107a12.891,12.891,0,0,1-4.615-2.537,12.7,12.7,0,0,1-3.341,1.214,30.658,30.658,0,0,1-4.824.654c-.934-.213-1.883-.361-2.818-.568,1.446,2.771,1.577,5.978,1.658,9.038a11.016,11.016,0,0,0,2.128,1.284,5.009,5.009,0,0,0-.089-1.661c1.531-.153,3.07-.156,4.6-.3,1.928-.116,3.854-.264,5.784-.324a11.578,11.578,0,0,0-1.408-1.931A9.962,9.962,0,0,1-2289.6,503.107Zm-4.93,3.169a16.978,16.978,0,0,1-.35,1.846,4.2,4.2,0,0,1-1.2.3,50.924,50.924,0,0,1-5.543.743c-.2-1.655-.337-3.318-.37-4.985,1.579-.281,3.143-.647,4.727-.9a15.323,15.323,0,0,1,3.042-.326A16.073,16.073,0,0,1-2294.531,506.276Z" transform="translate(2315.663 -486.675)"/>
        <path id="路径_2133" data-name="路径 2133" class="cls-2" d="M-2293.866,486.779c-.8.3-1.562.692-2.375.956a29.545,29.545,0,0,1-5.247,1.1c-1.013.169-2.051.089-3.058.311a8.069,8.069,0,0,0,1.7,2.014c1.014-.222,1.953-.685,2.971-.887a14.187,14.187,0,0,1-1.571,4.509,17.488,17.488,0,0,1-2.219,3.077,15.612,15.612,0,0,1-3.057,2.472c-.056-2.047-.023-4.095,0-6.141a11.673,11.673,0,0,1,.745-4.045,9.173,9.173,0,0,1-3.134-1.479,11.172,11.172,0,0,1-2.454.982,5.668,5.668,0,0,1-1.979.108,9.284,9.284,0,0,0-2.028-.586c.113.811.264,1.614.354,2.427s.052,1.649.125,2.473c.108,1.082.067,2.169.078,3.256-.012,1.449.038,2.9-.1,4.348a24.158,24.158,0,0,1-.181,2.839c-.051.77-.3,1.519-.292,2.291a14.8,14.8,0,0,0,1.448,1.551c.2.22.641.55.835.148.184-.512-.027-1.1.147-1.617a9.623,9.623,0,0,1,1.876-.268,10.239,10.239,0,0,1,1.637-.1,2.207,2.207,0,0,1,.58.563,5.466,5.466,0,0,0,2.038,1.728,4.351,4.351,0,0,0,.293-2.24q0-3,0-6a4.64,4.64,0,0,0,1.983.514,3.177,3.177,0,0,0,2.261-1.229,26.649,26.649,0,0,0,3.755-5.758c.5-1.02,1.208-1.915,1.712-2.933a6.754,6.754,0,0,1-2.228-.809c0-.038,0-.116-.005-.153,1.22-.357,2.474-.582,3.7-.916a6.163,6.163,0,0,1,1.949-.309c.231.343.075.775.03,1.15-.394,1.857-.712,3.732-1.24,5.555-.1.294-.168.72-.56.734-.895.055-1.709-.456-2.6-.439a4.959,4.959,0,0,0,1.3,1.84,8.069,8.069,0,0,0,3.229,2.451,10.935,10.935,0,0,0,.944-2.662c.792-2.982,1.265-6.092,2.64-8.885A10.339,10.339,0,0,1-2293.866,486.779Zm-15.344,18.555c-.243-.184-.448-.564-.8-.481-1.078.15-2.119.487-3.192.664q-.059-3.395,0-6.8c1.227-.15,2.464-.242,3.688-.436a5.529,5.529,0,0,0-.707-1.608c-1.038.094-1.965.669-3,.748,0-2.143-.018-4.284.011-6.426.219.12.453.334.716.183a10.147,10.147,0,0,1,3.293-.587,12.518,12.518,0,0,1,.159,1.7q-.007,5.235,0,10.472A9.587,9.587,0,0,1-2309.211,505.333Z" transform="translate(2315.584 -486.779)"/>
      </g>
      <g id="组_4760" data-name="组 4760" transform="translate(-2280.929 488.451)">
        <path id="路径_2134" data-name="路径 2134" class="cls-2" d="M-2278.8,490.442l-2.208-1.319v.426a1.562,1.562,0,0,0,.039.424.726.726,0,0,0,.229.34.958.958,0,0,0,.447.2v.064l-.845-.091v-2.057l2.212,1.322v-.334a1.7,1.7,0,0,0-.012-.255.621.621,0,0,0-.089-.218.557.557,0,0,0-.177-.169.93.93,0,0,0-.279-.1v-.061l.685.061Z" transform="translate(2281.19 -488.427)"/>
        <path id="路径_2135" data-name="路径 2135" class="cls-2" d="M-2280.011,491.713h-.724a.754.754,0,0,0-.224.019.172.172,0,0,0-.079.075.288.288,0,0,0-.033.15v.075h-.064v-1.175h.064v.075a.3.3,0,0,0,.036.157.15.15,0,0,0,.083.067.741.741,0,0,0,.218.018h1.539a.81.81,0,0,0,.225-.018.165.165,0,0,0,.079-.074.29.29,0,0,0,.033-.15v-.075h.065v1.175h-.065v-.075a.306.306,0,0,0-.036-.158.161.161,0,0,0-.083-.068.737.737,0,0,0-.217-.018h-.662v.793h.662a.809.809,0,0,0,.225-.018.168.168,0,0,0,.079-.074.293.293,0,0,0,.033-.15v-.074h.065v1.173h-.065v-.073a.3.3,0,0,0-.036-.157.163.163,0,0,0-.083-.069.738.738,0,0,0-.217-.018h-1.539a.806.806,0,0,0-.224.018.172.172,0,0,0-.079.075.3.3,0,0,0-.033.151v.073h-.064V492.19h.064v.074a.3.3,0,0,0,.036.157.16.16,0,0,0,.083.067.74.74,0,0,0,.218.018h.724Z" transform="translate(2281.19 -488.409)"/>
        <path id="路径_2136" data-name="路径 2136" class="cls-2" d="M-2280.469,494.983v-.793l-.228-.095a.535.535,0,0,0-.187-.046.159.159,0,0,0-.145.077.612.612,0,0,0-.041.221h-.064V493.6h.064a.327.327,0,0,0,.1.2,1.383,1.383,0,0,0,.354.192l1.867.8v.032l-1.919.809a1.173,1.173,0,0,0-.343.19.255.255,0,0,0-.062.159h-.064V494.9h.064v.044a.323.323,0,0,0,.038.184.092.092,0,0,0,.079.036.21.21,0,0,0,.064-.01c.01,0,.053-.019.129-.049Zm.127-.056.806-.333-.806-.345Z" transform="translate(2281.19 -488.388)"/>
        <path id="路径_2137" data-name="路径 2137" class="cls-2" d="M-2278.763,497.481a1.1,1.1,0,0,1-.325.873,1.2,1.2,0,0,1-.869.336,1.276,1.276,0,0,1-.782-.251,1.093,1.093,0,0,1-.45-.935,1.119,1.119,0,0,1,.428-.938,1.273,1.273,0,0,1,.8-.261,1.191,1.191,0,0,1,.87.341A1.057,1.057,0,0,1-2278.763,497.481Zm-.11.02a.505.505,0,0,0-.329-.469,1.807,1.807,0,0,0-.772-.131,1.551,1.551,0,0,0-.886.2.454.454,0,0,0-.2.394.456.456,0,0,0,.085.284.715.715,0,0,0,.354.228,2.055,2.055,0,0,0,.632.081,2.189,2.189,0,0,0,.7-.083.674.674,0,0,0,.324-.212A.479.479,0,0,0-2278.873,497.5Z" transform="translate(2281.19 -488.367)"/>
        <path id="路径_2138" data-name="路径 2138" class="cls-2" d="M-2278.8,501.1h-.634v-.06a1.059,1.059,0,0,0,.315-.117.46.46,0,0,0,.152-.177.54.54,0,0,0,.031-.221v-.167h-1.8a.753.753,0,0,0-.224.019.177.177,0,0,0-.079.075.3.3,0,0,0-.033.151v.075h-.064V499.5h.064v.075a.3.3,0,0,0,.036.157.162.162,0,0,0,.083.069.74.74,0,0,0,.218.018h1.8v-.162a.462.462,0,0,0-.1-.329.673.673,0,0,0-.4-.182v-.062h.634Z" transform="translate(2281.19 -488.346)"/>
        <path id="路径_2139" data-name="路径 2139" class="cls-2" d="M-2281.071,502.614h-.064V501.44h.064v.075a.3.3,0,0,0,.036.157.159.159,0,0,0,.083.066.74.74,0,0,0,.218.018h1.539a.809.809,0,0,0,.225-.018.17.17,0,0,0,.079-.074.293.293,0,0,0,.033-.15v-.075h.065v1.174h-.065v-.075a.3.3,0,0,0-.036-.157.161.161,0,0,0-.083-.068.738.738,0,0,0-.217-.018h-1.539a.753.753,0,0,0-.224.019.174.174,0,0,0-.079.074.293.293,0,0,0-.033.15Z" transform="translate(2281.19 -488.328)"/>
        <path id="路径_2140" data-name="路径 2140" class="cls-2" d="M-2278.795,503.695l-1.452,1.108h1.007a.492.492,0,0,0,.284-.058.31.31,0,0,0,.1-.267h.065v.743h-.065a.556.556,0,0,0-.048-.191.205.205,0,0,0-.1-.077.7.7,0,0,0-.234-.027h-1.949v-.056l1.949-1.518h-1.487a.336.336,0,0,0-.273.089.314.314,0,0,0-.071.2v.053h-.063v-.8h.063a.349.349,0,0,0,.08.259.382.382,0,0,0,.264.073h1.651l.062-.048a.449.449,0,0,0,.123-.125.373.373,0,0,0,.032-.158h.065Z" transform="translate(2281.19 -488.317)"/>
        <path id="路径_2141" data-name="路径 2141" class="cls-2" d="M-2278.741,507.789h-.825v-.06a1.053,1.053,0,0,0,.514-.333.758.758,0,0,0,.177-.485.612.612,0,0,0-.147-.419.8.8,0,0,0-.412-.237,2.117,2.117,0,0,0-.542-.07,2.074,2.074,0,0,0-.59.076.675.675,0,0,0-.373.246.685.685,0,0,0-.119.4.8.8,0,0,0,.018.166,1.12,1.12,0,0,0,.052.174h.486a.541.541,0,0,0,.178-.018.173.173,0,0,0,.074-.076.271.271,0,0,0,.033-.138v-.057h.064v1.091h-.064a.451.451,0,0,0-.036-.173.176.176,0,0,0-.088-.076.505.505,0,0,0-.161-.015h-.486a2.2,2.2,0,0,1-.151-.447,2.3,2.3,0,0,1-.05-.483,1.359,1.359,0,0,1,.091-.531,1.324,1.324,0,0,1,.238-.373,1.129,1.129,0,0,1,.333-.253,1.21,1.21,0,0,1,.533-.116,1.225,1.225,0,0,1,.891.357,1.2,1.2,0,0,1,.364.9,1.528,1.528,0,0,1-.027.3,1.488,1.488,0,0,1-.079.236.926.926,0,0,0-.065.193.127.127,0,0,0,.035.086.312.312,0,0,0,.134.074Z" transform="translate(2281.19 -488.297)"/>
      </g>
    </g>
    <text id="一站式采集服务平台" class="cls-3" transform="translate(582 115)"><tspan x="0" y="0">一站式采集服务平台</tspan></text>
    <path id="一站式采集服务平台_-_轮廓" data-name="一站式采集服务平台 - 轮廓" class="cls-4" d="M134.723-14.137l2.052,1.259-.379.445a43.5,43.5,0,0,1-3.887,4.022c2.333-.076,4.655-.161,6.93-.254-.469-.5-.943-.983-1.418-1.458l-.381-.381,1.653-1.425.328.3c1.637,1.523,3.208,3.1,4.669,4.7l.354.387-1.893,1.573-.32-.376c-.361-.424-.73-.847-1.1-1.26-4.535.193-8.057.36-10.471.5a10.113,10.113,0,0,0-1.575.238l-.425.1-.853-2.224.475-.175a4.066,4.066,0,0,0,1.155-.654,30.877,30.877,0,0,0,4.811-4.965Zm.529,1.5-.291-.179a31.752,31.752,0,0,1-4.692,4.775,5.013,5.013,0,0,1-.974.618l.19.5a11.333,11.333,0,0,1,1.306-.171h.008c2.46-.14,6.069-.311,10.726-.508l.235-.01.158.175c.319.354.638.716.953,1.081l.326-.271c-1.242-1.339-2.561-2.665-3.93-3.952l-.16.138c.609.618,1.215,1.255,1.807,1.9l.729.793-1.076.045c-3.076.13-6.248.245-9.427.344l-1.44.045,1.1-.927A40.97,40.97,0,0,0,135.253-12.639Zm-34.733-1.479,2.13.909-.3.493q-.112.184-.227.365h8.019v1.726l-.114.138A12.37,12.37,0,0,1,106.9-7.845a24.044,24.044,0,0,0,5.051.807l.9.056-.521.733c-.325.458-.614.89-.857,1.285l-.17.276-.321-.043a24.652,24.652,0,0,1-6.771-1.77l-.194.079-.051.468c-.044.4-.089.779-.135,1.133h6.26l-.029.528c-.1,1.865-.2,3.195-.3,3.953a2.8,2.8,0,0,1-3.115,2.659l-.34,0c-.6,0-1.427-.022-2.454-.066l-.407-.017-.065-.4c-.061-.378-.139-.809-.231-1.281l-.127-.652.661.058c1.175.1,2.159.159,2.923.17a.865.865,0,0,0,.974-.9V-.77c.073-.61.131-1.261.172-1.94H103.46c-.7,2.476-2.733,4.3-6.049,5.427l-.356.121-.215-.308c-.234-.336-.487-.682-.753-1.029l-.017-.022c-.262.314-.492.6-.686.862l-.244.325-.368-.172a12.145,12.145,0,0,1-3.047-2,13.764,13.764,0,0,1-2.56,1.825l-.431.241-.03-.052H86.547V-12.852H95.3l-.033.531q-.078,1.264-.125,2a3.1,3.1,0,0,1-.8,2.107,2.824,2.824,0,0,1-2.077.74h-.1c-.43-.01-1.11-.032-2.023-.063l-.414-.014-.063-.41c-.062-.4-.129-.813-.2-1.224l-.116-.664.669.081c.753.092,1.438.148,2.035.169h.073c.573,0,.816-.231.865-.824l0-.016q.018-.159.034-.333H88.734v3.5h6.594v.828l.674-.1a35.078,35.078,0,0,0,5.77-1.345A10,10,0,0,1,100-9.541,22.289,22.289,0,0,1,97.664-7.28l-.362.3-.323-.344c-.3-.32-.578-.593-.825-.81l-.449-.4.469-.372a15.131,15.131,0,0,0,4.132-4.807Zm.668,1.372-.214-.091a13.747,13.747,0,0,1-1,1.518h9.166v-.031h-8.913l.551-.787C100.917-12.337,101.054-12.54,101.187-12.746Zm-6.953.895H87.547V1.508h.187V.933L87.554.661l.181-.092V-6.258h1.654l.073.413a10.01,10.01,0,0,0,1.91,4.482l.275.352L91.326-.7A11.179,11.179,0,0,1,89,1.035l.1.167A12.258,12.258,0,0,0,91.375-.551L91.729-.9l.351.351a10.7,10.7,0,0,0,2.756,1.96q.108-.138.226-.283A9.574,9.574,0,0,1,92.2-.715l-.338-.32.295-.36a10.956,10.956,0,0,0,2.176-4.513v-.365H87.734v-5.5H94.1l-.034.532c-.021.327-.048.632-.08.908A1.73,1.73,0,0,1,92.121-8.6l-.108,0c-.444-.015-.932-.049-1.457-.1l.029.179c.7.023,1.24.04,1.6.048h.076c1.233,0,1.813-.586,1.881-1.9v-.006Q94.178-10.956,94.234-11.852Zm9.987,4.07-.215-.106a10.32,10.32,0,0,1-3.4-2.612l-.658-.789a17.477,17.477,0,0,1-2.706,2.806l.133.132a21.122,21.122,0,0,0,2.264-2.3l.413-.49.375.52a9.181,9.181,0,0,0,2.706,2.436l.87.53-.952.364a32.854,32.854,0,0,1-6.167,1.612l.095.164a33.4,33.4,0,0,0,7.042-1.992l.2-.087.2.094a22.855,22.855,0,0,0,6.365,1.735q.107-.167.222-.341a22.072,22.072,0,0,1-5.524-1.142l-1.066-.387,1.005-.526a12.393,12.393,0,0,0,3.708-2.825v-.268l-.825.795a14.249,14.249,0,0,1-3.877,2.577Zm2.387-2.539h-4.444a9.758,9.758,0,0,0,2.07,1.427A14.406,14.406,0,0,0,106.607-10.32ZM96.452-4.407l-.172-.313c-.172-.314-.384-.675-.628-1.072l-.324-.527V-5.8l-.013.055a12.055,12.055,0,0,1-2.094,4.6A9.131,9.131,0,0,0,96.058.443l.533.19c2.316-.794,3.822-1.917,4.488-3.343H96.969V-4.5l-.164.029Zm5.126-.413c.031-.247.059-.507.086-.778q-1.425.431-3.042.778Zm1.33-.687h-.249c-.044.452-.094.874-.149,1.259l-.062.429h-4.48v.109h4.488l-.178.635c-.555,1.978-2.23,3.5-4.984,4.519l.146.2c2.961-1.082,4.645-2.708,5.142-4.964l.086-.392h6.137l-.025.524c-.042.892-.111,1.744-.206,2.532a1.842,1.842,0,0,1-1.954,1.788H106.6c-.642-.009-1.43-.049-2.349-.12q.024.134.047.262c.826.032,1.5.048,2.007.048l.325,0h.005c1.336-.009,1.993-.556,2.131-1.775V-.46c.083-.663.171-1.792.264-3.36H102.68l.082-.571C102.812-4.735,102.861-5.108,102.909-5.508Zm-12.6,4.393a10.722,10.722,0,0,1-1.575-3.4V.031A10.28,10.28,0,0,0,90.309-1.115ZM19.516-14.086l.22.4c.42.766.861,1.643,1.311,2.607l.214.458-.318.144h2.448v2.094H21.865l1.145.269-.117.489C22.469-5.858,22-4.035,21.507-2.195c.356-.072.716-.147,1.076-.224l.135-.029V-5.93h2.969v-7.859h2.25v3.219h3.8V-10.8H40.4c-.031-.812-.056-1.668-.073-2.553l-.01-.51h2.34l0,.5q0,.468,0,.936L44.046-13.9l.356.257a29.216,29.216,0,0,1,2.321,1.876l.388.346-.6.621h1.566v2.172h-5.3a27.217,27.217,0,0,0,.77,5.7A5.351,5.351,0,0,0,45.184.025l.022.017A.763.763,0,0,0,45.459.2.8.8,0,0,0,45.6-.092,15.812,15.812,0,0,0,46-2.41l.074-.626.593.214c.474.171.885.3,1.224.393l.438.116-.073.447q-.1.626-.21,1.176a16.112,16.112,0,0,0,5.235-3.444H47.906V-6.32h3.835l-.227-.32C50.764-7.7,50.035-8.662,49.347-9.5l-.334-.409,1.088-.793-.544.011-.439.009-.065-.434c-.06-.4-.132-.791-.212-1.153l-.134-.6.616-.007c5.693-.062,10.115-.2,13.143-.405l.457-.031.346,2.19-.557.027-.277.013.842.625-.351.407c-1.029,1.2-2.11,2.418-3.212,3.634l-.092.1h4.456v2.188H58.653A11.144,11.144,0,0,0,64.034-1.1l.731.193-.464.6c-.235.3-.447.6-.633.876l.37-.09a16.35,16.35,0,0,0,4.5-1.827H64.219v-2h1.875V-7.925q-.4.409-.807.774l-.468.42-.3-.551a5.82,5.82,0,0,0-.69-.946l-.333-.385.391-.326A16.244,16.244,0,0,0,67.6-13.457l.224-.4,2.011.9-.295.484q-.19.312-.384.615h2.577q-.229-.336-.489-.685l-.329-.44,1.744-1.064.278.307a10.872,10.872,0,0,1,1.261,1.672l.126.21h5.211v1.969H73.609v.109h5.234v1.906H73.609v.109h5.234v1.906H73.609v.141h5.969v1.969H73.047v.391h6.719v2H75.506A15.624,15.624,0,0,0,79.943.268l.248.05A9.006,9.006,0,0,0,80.844-3.4v-9.516H86.25V.258A1.829,1.829,0,0,1,84.3,2.32c-.54,0-1.051-.016-1.518-.048l-.408-.028-.054-.4c-.027-.2-.063-.428-.108-.679a6.156,6.156,0,0,1-.645,1.168l-.394.555-.411-.542a4.74,4.74,0,0,0-.778-.79l-.033-.027c-.151.237-.289.456-.414.655l-.2.32-.363-.1A17.956,17.956,0,0,1,73.047-.528V2.586H70.953V-.563A19.722,19.722,0,0,1,65.04,2.422l-.355.111-.209-.308c-.21-.309-.448-.629-.708-.949l-.31-.382-.045.074-.214.357-.39-.146a13.538,13.538,0,0,1-5.7-3.942V2.664H54.891V-2.809a18.121,18.121,0,0,1-5.572,4.216l-.393.2-.246-.364c-.219-.323-.492-.685-.814-1.075q-.128.547-.263.988l-.006.018a1.911,1.911,0,0,1-1.91,1.414,3.525,3.525,0,0,1-2.5-1.245l-.006-.006a8.189,8.189,0,0,1-1.722-3.358l-.024.463c-.02.4-.031.813-.031,1.24V.113l-.429.061c-3.119.446-5.908.861-8.29,1.233l-.457.071-.55-2.308.557-.067c1.031-.123,2.1-.258,3.184-.4V-4.742H32.375V-6.914H40.63q-.071-.822-.116-1.719H32.281v.25H27.938V-5.93h3.469V2.555H29.219V1.633H24.906v.922H22.719V-.263c-2.151.433-4.2.862-6.08,1.275l-.479.1-.537-2.233.529-.088c.988-.165,2.008-.347,3.037-.542q.074-.263.145-.523L17.8-1.854l-.1-.524c-.34-1.7-.742-3.4-1.195-5.044l-.134-.489,1.81-.472H15.953v-2.094h2.871a24.739,24.739,0,0,0-1.076-2.246l-.26-.479Zm22.14,1.219h-.317c.02.886.048,1.738.083,2.541l.023.522h-8.71v.172h8.738l.02.479c.207,5.015,1.02,8.312,2.416,9.8a2.585,2.585,0,0,0,1.78.94A.928.928,0,0,0,46.65.852,21.025,21.025,0,0,0,47.2-1.588l-.28-.089a13.707,13.707,0,0,1-.36,1.871l0,.015c-.265.819-.732.991-1.077.991a1.428,1.428,0,0,1-.891-.374c-1.692-1.238-2.617-4.49-2.828-9.94l-.02-.519h5.34V-9.8H45.546L45.5-9.76,45.46-9.8H41.721l-.017-.482C41.673-11.135,41.657-12,41.655-12.867ZM19.925-11.113c-.289-.605-.574-1.171-.849-1.69l-.194.085c.287.557.556,1.131.8,1.714Zm7.013-1.676h-.25V-4.93H23.719V1.555h.187V.633h6.313v.922h.187V-4.93H26.938V-9.383h4.344V-9.57H26.938Zm46.135.831q-.269-.392-.609-.794l-.1.061q.3.424.553.831Zm-27.406.59c-.5-.434-1-.838-1.5-1.208l-.086.091c.489.422.96.856,1.409,1.3ZM68.383-12.5l-.145-.065A17.246,17.246,0,0,1,64.9-8.5q.079.1.149.2c.393-.381.784-.8,1.165-1.24l.879-1.025v6.413h.094v-6.734h.1l.52-.753C68-11.915,68.193-12.206,68.383-12.5ZM44.452-10.8c-.452-.428-.924-.849-1.413-1.257l-.381-.318c0,.528.014,1.054.029,1.575Zm17.655-1.27-.029-.186c-2.914.184-6.993.309-12.139.37q.017.092.033.186C54.783-11.8,58.86-11.925,62.107-12.075Zm23.143.161H81.844V-3.4a9.464,9.464,0,0,1-.905,4.459q.075.07.146.141a9.75,9.75,0,0,0,.869-4.64l-.007-.507h.007V-11.9h3.188V.148A1.058,1.058,0,0,1,84,1.289c-.23,0-.484-.014-.761-.041l.008.05c.332.015.683.023,1.05.023.572,0,.953-.181.953-1.062Zm-27.1,3.935c.785-.878,1.634-1.9,2.527-3.032q-2.055.084-4.481.156c.761,1.066,1.33,1.9,1.7,2.471ZM84.141-10.9H82.953v2h1.188Zm-11.531.047h-.094v6.109h.094ZM55.61-7.7c-.438-.728-.98-1.554-1.614-2.464l-.308-.442.329-.194q-1.4.036-2.9.069c.746.87,1.507,1.79,2.262,2.736l.331.415L51.926-6.32h2.965V-7.7ZM61.817-10.3l-.269-.2c-.84,1.072-1.642,2.043-2.392,2.9l.155.141C60.165-8.415,61.006-9.366,61.817-10.3ZM56.762-8.287c-.361-.544-.851-1.249-1.464-2.1l-.175.1c.536.783,1,1.5,1.386,2.146Zm14.754-1.6H68.188v.109h3.328Zm-19.254,2.1c-.563-.7-1.127-1.38-1.685-2.034l-.124.09c.512.643,1.043,1.346,1.587,2.1ZM22.391-9.477H16.953v.094h5.438Zm-1.7,1.094H18.426l.117.41c.4,1.4.781,2.88,1.135,4.4.419-1.646.744-3.17.969-4.55ZM59.081-6.32,57.749-7.535l.31-.345-.95.546V-6.32ZM71.516-7.867H68.188v.109h3.328ZM21.8-7.37l-.258-.06a62.756,62.756,0,0,1-1.478,6.255l-.084.3-.3.058c-.957.183-1.907.356-2.834.514L16.9-.07c1.673-.364,3.463-.739,5.337-1.117q-.007-.066-.013-.135c-.445.093-.887.181-1.318.266L20.117-.9l.213-.777C20.858-3.6,21.352-5.516,21.8-7.37ZM18.75-3.146c-.324-1.408-.671-2.777-1.035-4.082L17.6-7.2c.36,1.346.686,2.721.972,4.1ZM84.141-6.93H82.953v2.016h1.188ZM56.109-6.7h-.219V1.664h.219ZM41.42-2.164a23.972,23.972,0,0,1-.7-3.841v1.264H37.7v3.127c1.03-.147,2.09-.3,3.16-.465Zm-1.7-3.75H33.375v.172h3.047v5.32l-.433.058c-1.043.14-2.074.273-3.075.395l.076.318c2.172-.338,4.664-.708,7.421-1.1q0-.124.005-.247c-1.068.16-2.122.313-3.142.458l-.57.081V-5.742h3.016Zm31.8.062H68.188v.141h3.328ZM55.549-5.32H48.906v.188h6.508Zm7.529,0H56.511l.124.188h6.443ZM49.251.317a16.325,16.325,0,0,0,5.733-4.851l.177-.246-.374.462A15.871,15.871,0,0,1,49-.017Q49.132.154,49.251.317ZM63.075-.337a11.455,11.455,0,0,1-5.9-4l-.113-.15A12.292,12.292,0,0,0,62.781.095Q62.919-.117,63.075-.337Zm7.878-3.4H68.188v.391h2.766Zm1.094.328h-.094v5h.094Zm12.094.469H82.953a12.5,12.5,0,0,1-.4,3.093L82.7.17A8.609,8.609,0,0,0,84,.289a.394.394,0,0,0,.125-.015.394.394,0,0,0,.015-.125Zm-5.375.594h0Zm.273,3.441A16.437,16.437,0,0,1,73.683-1.3a16.848,16.848,0,0,0,5.205,2.626Zm-13.95.267A18.823,18.823,0,0,0,69.655-.869a17.11,17.11,0,0,1-4.643,2.12ZM112.625-13.07h14.813v2.2h-2.274l1.694,1.084-.313.429a45.163,45.163,0,0,1-3.251,4.018h4.831v2.2h-6.969v5.75h-2.312v-5.75h-6.922v-2.2h4.438a43.471,43.471,0,0,0-2.831-4l-.328-.416,1.592-1.112h-2.169Zm13.813,1H113.625v.2h6.219v7.531h-6.922v.2h6.922v5.75h.312v-5.75h6.969v-.2h-6.969v-7.531h6.281Zm-7.594,1.2H115.11l.176.206a41.887,41.887,0,0,1,3.052,4l.262.394-1.245.929h1.488Zm5.829,0h-3.517v4.5l.356-.375a25.181,25.181,0,0,0,3.033-3.922Zm.749,1.352-.3-.193A26.215,26.215,0,0,1,122.6-6.444l.2.167C123.62-7.186,124.5-8.272,125.422-9.515ZM117.241-6.5c-.7-1.022-1.512-2.084-2.422-3.167l-.179.125c.867,1.122,1.64,2.215,2.308,3.261Zm5.123,1.162-1.208-1.013v1.013ZM-.25-7.258H16.281v2.375H-.25Zm15.531,1H.75v.375H15.281Zm74.139,0h4.811l-.152.619A10.441,10.441,0,0,1,92.158-1.62l-.393.5-.392-.5A9.764,9.764,0,0,1,89.55-5.653Zm3.517,1h-2.26a8.8,8.8,0,0,0,1.092,2.475A9.441,9.441,0,0,0,92.937-5.258Zm36.985-.3h12.156V2.539H139.8V1.508H132.2V2.539h-2.281Zm11.156,1H130.922V1.539h.281V.508H140.8V1.539h.281ZM23.906-4.836h6.313V.539H23.906Zm5.313,1H24.906V-.461h4.313ZM131.2-4.4H140.8V.383H131.2Zm8.594,1H132.2V-.617H139.8Z" transform="translate(582 115)"/>
  </g>
</svg>
