<svg xmlns="http://www.w3.org/2000/svg" width="20" height="20" viewBox="0 0 20 20">
  <defs>
    <style>
      .cls-1 {
        fill: #ece8e5;
      }

      .cls-2 {
        fill: none;
      }
    </style>
  </defs>
  <g id="客服" transform="translate(-659 -160)">
    <g id="组_4875" data-name="组 4875" transform="translate(660 161)">
      <path id="路径_2165" data-name="路径 2165" class="cls-1" d="M88.557,423.943H87.2a.6.6,0,0,1-.607-.6v-4.421a.6.6,0,0,1,.607-.6h1.359a2.218,2.218,0,0,1,2.227,2.2v1.216A2.218,2.218,0,0,1,88.557,423.943Zm-.752-1.2h.752a1.008,1.008,0,0,0,1.012-1v-1.216a1.008,1.008,0,0,0-1.012-1H87.8Zm15.406,1.57h-1.359a2.218,2.218,0,0,1-2.227-2.2v-1.216a2.218,2.218,0,0,1,2.227-2.2h1.359a.6.6,0,0,1,.607.6v4.421A.6.6,0,0,1,103.211,424.311Zm-1.359-4.421a1.008,1.008,0,0,0-1.012,1v1.216a1.008,1.008,0,0,0,1.012,1h.752V419.89ZM95.2,428.811a1.522,1.522,0,1,1,1.539-1.522A1.532,1.532,0,0,1,95.2,428.811Zm0-1.842a.32.32,0,1,0,.324.32A.322.322,0,0,0,95.2,426.969Z" transform="translate(-86.59 -411.583)"/>
      <path id="路径_2166" data-name="路径 2166" class="cls-1" d="M103.221,90.57a.6.6,0,0,1-.607-.6c0-3.732-3.319-6.767-7.4-6.767s-7.4,3.036-7.4,6.767a.608.608,0,0,1-1.215,0C86.6,85.575,90.464,82,95.214,82s8.614,3.575,8.614,7.969A.6.6,0,0,1,103.221,90.57ZM96.66,98.333a3.951,3.951,0,0,1-.627-.036.6.6,0,1,1,.222-1.182c.428.079,3.7-.012,5.4-1.41a2.408,2.408,0,0,0,.961-1.946.608.608,0,0,1,1.215,0,3.586,3.586,0,0,1-1.4,2.871A9.943,9.943,0,0,1,96.66,98.333Z" transform="translate(-86.6 -82)"/>
    </g>
    <rect id="矩形_891" data-name="矩形 891" class="cls-2" width="20" height="20" transform="translate(659 160)"/>
  </g>
</svg>
