<svg xmlns="http://www.w3.org/2000/svg" width="20" height="20" viewBox="0 0 20 20">
  <defs>
    <style>
      .cls-1 {
        fill: #ece8e5;
      }

      .cls-2 {
        fill: none;
      }
    </style>
  </defs>
  <g id="消息" transform="translate(-617 -160)">
    <path id="消息-2" data-name="消息" class="cls-1" d="M80.118,191H66.438A2.417,2.417,0,0,0,64,193.39v8.473a2.417,2.417,0,0,0,2.438,2.39H80.116a2.417,2.417,0,0,0,2.438-2.39V193.39A2.414,2.414,0,0,0,80.118,191Zm-3.8,6.554,5.092-4.96a1.482,1.482,0,0,1,.234.8v8.473a1.477,1.477,0,0,1-.2.74Zm3.8-5.665a1.544,1.544,0,0,1,.6.12l-7.429,7.263L65.851,192a1.535,1.535,0,0,1,.586-.116ZM65.112,202.611a1.465,1.465,0,0,1-.205-.748V193.39a1.473,1.473,0,0,1,.238-.8l5.026,4.968Zm1.325.753a1.568,1.568,0,0,1-.661-.147l5.078-5.063,2.023,1.941.023.023.025.025a.514.514,0,0,0,.673.029l2.081-2,5.109,5.041a1.541,1.541,0,0,1-.669.151Zm0,0" transform="translate(553.5 -27.5)"/>
    <path id="消息_-_轮廓" data-name="消息 - 轮廓" class="cls-1" d="M80.116,204.4H66.438a2.567,2.567,0,0,1-2.588-2.54V193.39a2.567,2.567,0,0,1,2.588-2.54H80.118a2.59,2.59,0,0,1,1.846.763,2.5,2.5,0,0,1,.739,1.778v8.472A2.567,2.567,0,0,1,80.116,204.4ZM66.438,191.15a2.267,2.267,0,0,0-2.288,2.24v8.473a2.267,2.267,0,0,0,2.288,2.24H80.116a2.267,2.267,0,0,0,2.288-2.24V193.39a2.2,2.2,0,0,0-.651-1.565,2.292,2.292,0,0,0-1.634-.675ZM80.12,203.516l-13.683,0a1.71,1.71,0,0,1-.724-.161l-.2-.09,5.334-5.319,2.179,2.093a.364.364,0,0,0,.469.022l2.181-2.093,5.365,5.293-.192.092A1.685,1.685,0,0,1,80.12,203.516Zm-14.073-.357a1.4,1.4,0,0,0,.39.055l13.683,0a1.4,1.4,0,0,0,.4-.057l-4.84-4.775-1.986,1.905a.664.664,0,0,1-.87-.038l-.05-.05-1.915-1.838Zm-.967-.3-.1-.167a1.625,1.625,0,0,1-.226-.825V193.39a1.627,1.627,0,0,1,.262-.886l.1-.155,5.265,5.2Zm.1-10.022a1.325,1.325,0,0,0-.123.559v8.473a1.3,1.3,0,0,0,.1.5l4.805-4.8Zm16.3,10.014-5.375-5.292,5.335-5.2.1.156a1.634,1.634,0,0,1,.257.876v8.473a1.635,1.635,0,0,1-.219.815Zm-4.946-5.291,4.869,4.795a1.33,1.33,0,0,0,.093-.486V193.39a1.322,1.322,0,0,0-.121-.551Zm-3.25,1.927-7.7-7.529.21-.087a1.676,1.676,0,0,1,.643-.127H80.118a1.683,1.683,0,0,1,.654.132l.208.087Zm-7.151-7.41,7.151,6.99,7.147-6.987a1.39,1.39,0,0,0-.315-.036H66.438A1.39,1.39,0,0,0,66.135,192.072Z" transform="translate(553.5 -27.5)"/>
    <rect id="矩形_890" data-name="矩形 890" class="cls-2" width="20" height="20" transform="translate(617 160)"/>
  </g>
</svg>
