<svg xmlns="http://www.w3.org/2000/svg" width="20" height="20" viewBox="0 0 20 20">
  <defs>
    <style>
      .cls-1 {
        fill: #ece8e5;
      }

      .cls-2 {
        fill: none;
      }
    </style>
  </defs>
  <g id="设置" transform="translate(-702 -160)">
    <path id="路径_2203" data-name="路径 2203" class="cls-1" d="M18.044,6.836c-.107-.563-.45-.927-.876-.927h-.092a2.234,2.234,0,0,1-2.232-2.232,2.543,2.543,0,0,1,.194-.851,1.171,1.171,0,0,0-.394-1.416l-.027-.019L12.355.136,12.327.123a1.194,1.194,0,0,0-.479-.1,1.3,1.3,0,0,0-.92.375,3.266,3.266,0,0,1-1.762.987A3.273,3.273,0,0,1,7.391.383,1.3,1.3,0,0,0,6.463,0a1.192,1.192,0,0,0-.47.093L5.964.105,3.622,1.392l-.028.019a1.169,1.169,0,0,0-.4,1.415,2.521,2.521,0,0,1,.195.852A2.234,2.234,0,0,1,1.161,5.909H1.068c-.425,0-.769.364-.875.927A11.59,11.59,0,0,0,0,8.621a11.588,11.588,0,0,0,.19,1.786c.107.563.45.927.876.927h.093a2.234,2.234,0,0,1,2.232,2.232,2.538,2.538,0,0,1-.194.851,1.172,1.172,0,0,0,.394,1.416l.026.018,2.218,1.241.028.012a1.181,1.181,0,0,0,.478.1,1.273,1.273,0,0,0,.927-.392,3.265,3.265,0,0,1,1.8-1.049,3.293,3.293,0,0,1,1.813,1.07,1.273,1.273,0,0,0,.933.4h0a1.178,1.178,0,0,0,.469-.094l.029-.012,2.3-1.271.027-.019a1.17,1.17,0,0,0,.4-1.414,2.566,2.566,0,0,1-.2-.853,2.234,2.234,0,0,1,2.232-2.232h.091c.426,0,.77-.364.877-.926a11.486,11.486,0,0,0,.191-1.786A11.544,11.544,0,0,0,18.044,6.836ZM6.354,15.913,4.414,14.828a3.707,3.707,0,0,0,.26-1.262,3.511,3.511,0,0,0-3.241-3.5,9.737,9.737,0,0,1-.149-1.442A9.758,9.758,0,0,1,1.433,7.18a3.511,3.511,0,0,0,3.241-3.5,3.706,3.706,0,0,0-.259-1.26L6.48,1.284h0a6.164,6.164,0,0,0,.783.665,3.346,3.346,0,0,0,1.9.722,3.349,3.349,0,0,0,1.887-.708,6.134,6.134,0,0,0,.779-.652h0l1.991,1.106a3.708,3.708,0,0,0-.259,1.261A3.511,3.511,0,0,0,16.8,7.18a9.786,9.786,0,0,1,.149,1.442,9.748,9.748,0,0,1-.149,1.442,3.511,3.511,0,0,0-3.241,3.5,3.7,3.7,0,0,0,.259,1.26L11.806,15.94a6.258,6.258,0,0,0-.787-.695,3.34,3.34,0,0,0-1.949-.766,3.343,3.343,0,0,0-1.934.752A6.308,6.308,0,0,0,6.354,15.913Zm5.953-7.3a3.229,3.229,0,1,0-3.229,3.229A3.233,3.233,0,0,0,12.308,8.609ZM9.079,6.662A1.948,1.948,0,1,1,7.131,8.609,1.95,1.95,0,0,1,9.079,6.662Z" transform="translate(702.998 161)"/>
    <rect id="矩形_892" data-name="矩形 892" class="cls-2" width="20" height="20" transform="translate(702 160)"/>
  </g>
</svg>
